<svg width="600" height="400" viewBox="0 0 600 400" fill="none" xmlns="http://www.w3.org/2000/svg">
  <!-- Background -->
  <rect width="600" height="400" rx="20" fill="#F8FAFC" />
  
  <!-- Main email envelope -->
  <rect x="100" y="100" width="400" height="260" rx="12" fill="white" stroke="#3B82F6" stroke-width="4"/>
  
  <!-- Envelope flap -->
  <path d="M100 100L300 220L500 100" stroke="#3B82F6" stroke-width="4" fill="none"/>
  
  <!-- Blockchain elements -->
  <rect x="160" y="160" width="280" height="50" rx="8" fill="#EFF6FF"/>
  <rect x="160" y="230" width="280" height="50" rx="8" fill="#EFF6FF"/>
  <rect x="160" y="300" width="280" height="30" rx="8" fill="#EFF6FF"/>
  
  <!-- Lock icon -->
  <circle cx="300" cy="70" r="30" fill="#DBEAFE" stroke="#3B82F6" stroke-width="3"/>
  <rect x="290" y="65" width="20" height="25" rx="4" fill="#3B82F6"/>
  <path d="M285 65V55C285 47.268 291.268 41 299 41V41C306.732 41 313 47.268 313 55V65" stroke="#3B82F6" stroke-width="3" stroke-linecap="round"/>
  
  <!-- Blockchain nodes -->
  <circle cx="120" cy="200" r="10" fill="#BFDBFE"/>
  <circle cx="120" cy="260" r="10" fill="#93C5FD"/>
  <circle cx="60" cy="230" r="10" fill="#60A5FA"/>
  <circle cx="480" cy="200" r="10" fill="#BFDBFE"/>
  <circle cx="480" cy="260" r="10" fill="#93C5FD"/>
  <circle cx="540" cy="230" r="10" fill="#60A5FA"/>
  
  <!-- Connection lines -->
  <line x1="120" y1="210" x2="120" y2="250" stroke="#60A5FA" stroke-width="2"/>
  <line x1="130" y1="200" x2="470" y2="200" stroke="#60A5FA" stroke-width="2" stroke-dasharray="5 5"/>
  <line x1="130" y1="260" x2="470" y2="260" stroke="#60A5FA" stroke-width="2" stroke-dasharray="5 5"/>
  <line x1="480" y1="210" x2="480" y2="250" stroke="#60A5FA" stroke-width="2"/>
  <line x1="70" y1="230" x2="110" y2="230" stroke="#60A5FA" stroke-width="2"/>
  <line x1="490" y1="230" x2="530" y2="230" stroke="#60A5FA" stroke-width="2"/>
</svg> 